<?xml version="1.0" standalone="no"?><!DOCTYPE svg PUBLIC "-//W3C//DTD SVG 1.1//EN" "http://www.w3.org/Graphics/SVG/1.1/DTD/svg11.dtd"><svg t="1576057619546" class="icon" viewBox="0 0 1024 1024" version="1.1" xmlns="http://www.w3.org/2000/svg" p-id="1615" xmlns:xlink="http://www.w3.org/1999/xlink" width="64" height="64"><defs><style type="text/css"></style></defs><path d="M120 336.8c-8.8 0-15.9-7.1-15.9-15.9V149.7c0-8.8 7.1-15.9 15.9-15.9h166.5c8.8 0 15.9 7.1 15.9 15.9s-7.1 15.9-15.9 15.9H135.9v155.3c0 8.8-7.1 15.9-15.9 15.9zM877.2 336.8c-8.8 0-15.9-7.1-15.9-15.9V165.6H695c-8.8 0-15.9-7.1-15.9-15.9s7.1-15.9 15.9-15.9h182.2c8.8 0 15.9 7.1 15.9 15.9v171.2c0 8.8-7.1 15.9-15.9 15.9zM286.5 881.8H120c-4.2 0-8.3-1.7-11.3-4.6-3-3-4.7-7-4.6-11.3V700.7c0-8.8 7.1-15.9 15.9-15.9s15.9 7.1 15.9 15.9V850h150.6c8.8 0 15.9 7.1 15.9 15.9s-7.1 15.9-15.9 15.9zM877.2 881.8H695c-8.8 0-15.9-7.1-15.9-15.9S686.2 850 695 850h166.3V700.7c0-8.8 7.1-15.9 15.9-15.9s15.9 7.1 15.9 15.9v165.2c0 8.8-7.1 15.9-15.9 15.9zM423.7 549.9c-48.9-29.8-77.1-71.6-78.8-129.2-1.2-40.4 12.5-75.4 40.3-104.5 61-63.9 158.3-62.3 218.1 2.3 63.3 68.4 45.8 187.1-40.8 231.6 4.2 1.8 8 3.5 11.8 5.2C634.1 581 675.4 624.4 697 685.9c4.9 14 7 29 10.1 43.6 0.5 2.5 0.2 5.4-0.5 7.9-1.6 6.4-6.1 9.7-12.2 9.5-6.5-0.2-11.2-4.2-12.5-10.5-2.5-11.9-3.9-24.1-7.7-35.5-24.3-72.4-73.1-118.3-148.8-131.8-64.8-11.6-121.2 7.2-167.9 53.9-30.3 30.3-47.3 67.3-52.9 109.6-1.1 8-4.3 12.5-10.2 14-8.9 2.2-16.6-4.6-15.7-14 3.2-33.9 14.2-65.2 32.7-93.8 25-38.7 59-66.7 101.6-84.2 2.7-1.1 5.4-2.4 8.1-3.6 0.7-0.2 1.2-0.5 2.6-1.1z m69.3-9.8c67 0 121-54 122-119.7 1.1-71.5-55.6-123.4-118.9-125-66.2-1.7-124.1 51.1-125.2 120.4-1 68 53.3 124.3 122.1 124.3z" fill="#ffffff" p-id="1616"></path><path d="M592.9 417.7c0 49.8-40.6 90.3-90.7 90.3v-22.6c37.5 0 68-30.3 68-67.7 0-37.4-30.4-67.7-68-67.7v-22.6c50.1 0.1 90.7 40.5 90.7 90.3z" fill="#ffffff" p-id="1617"></path></svg>