<?xml version="1.0" standalone="no"?><!DOCTYPE svg PUBLIC "-//W3C//DTD SVG 1.1//EN" "http://www.w3.org/Graphics/SVG/1.1/DTD/svg11.dtd"><svg t="1558231554157" class="icon" style="" viewBox="0 0 1024 1024" version="1.1" xmlns="http://www.w3.org/2000/svg" p-id="2022" xmlns:xlink="http://www.w3.org/1999/xlink" width="128" height="128"><defs><style type="text/css"></style></defs><path d="M383.40418 385.110031l-64.46829 0L318.935889 64.644299l-63.444984 0 0 320.465732-63.444984 0L192.045921 64.644299l-63.444984 0 0 388.224975c0 34.258245 27.771507 62.029752 62.029752 62.029752l1.415232 0 0 444.11489 191.358259 0 0-444.11489 1.415232 0c34.258245 0 62.029752-27.771507 62.029752-62.029752L446.849164 64.644299l-63.444984 0L383.40418 385.110031z" p-id="2023"></path><path d="M573.398372 257.074983l0 189.385325c0 107.003036 86.742597 193.745632 193.745632 193.745632l0 0 0 318.807976 126.889969 0L894.033973 127.141702c0-34.516118-27.981285-62.497403-62.497403-62.497403l-65.707514 0C659.552567 64.644299 573.398372 150.798495 573.398372 257.074983z" p-id="2024"></path></svg>