<?xml version="1.0" standalone="no"?><!DOCTYPE svg PUBLIC "-//W3C//DTD SVG 1.1//EN" "http://www.w3.org/Graphics/SVG/1.1/DTD/svg11.dtd"><svg t="1552615849891" class="icon" style="" viewBox="0 0 1025 1024" version="1.1" xmlns="http://www.w3.org/2000/svg" p-id="1895" xmlns:xlink="http://www.w3.org/1999/xlink" width="200.1953125" height="200"><defs><style type="text/css"></style></defs><path d="M881.469 152.844h-738.938c-61.031 0-110.531 49.5-110.531 110.531v497.25c0 61.031 49.5 110.438 110.531 110.438h739.031c61.031 0 110.531-49.5 110.531-110.438v-497.25c-0.094-61.031-49.594-110.531-110.625-110.531v0zM646.813 372.219h153.469c12.188 0 23.438 16.594 23.438 28.781s-11.25 28.781-23.438 28.781h-153.469c-12.187 0-23.437-16.594-23.437-28.781s11.25-28.781 23.437-28.781v0zM646.813 495.219h153.469c12.188 0 23.438 16.594 23.438 28.781s-11.25 28.781-23.438 28.781h-153.469c-12.187 0-23.437-16.594-23.437-28.781 0-12.188 11.25-28.781 23.437-28.781v0zM145.812 709.063c-12-2.344-19.875-13.875-17.531-25.875 14.25-74.438 69.844-131.813 139.969-151.969-36.375-19.5-61.5-57.469-61.5-101.625 0-63.844 51.937-115.688 115.687-115.688 63.75 0 115.688 51.938 115.688 115.688 0 44.156-25.125 82.125-61.5 101.625 70.313 20.156 125.906 77.813 139.969 152.531 2.25 12-5.625 23.531-17.625 25.781v0c-1.406 0.281-2.813 0.375-4.125 0.375M874.063 675.781h-227.25c-12.187 0-23.437-16.594-23.437-28.781s11.25-28.781 23.437-28.781h227.25c12.188 0 23.438 16.594 23.438 28.781s-11.25 28.781-23.438 28.781v0zM874.063 675.781z" p-id="1896"></path></svg>