<?xml version="1.0" standalone="no"?><!DOCTYPE svg PUBLIC "-//W3C//DTD SVG 1.1//EN" "http://www.w3.org/Graphics/SVG/1.1/DTD/svg11.dtd"><svg t="1556422201324" class="icon" style="" viewBox="0 0 1024 1024" version="1.1" xmlns="http://www.w3.org/2000/svg" p-id="7286" xmlns:xlink="http://www.w3.org/1999/xlink" width="64" height="64"><defs><style type="text/css"></style></defs><path d="M336.8 284c0-32-26.4-58.4-58.4-58.4s-58.4 26.4-58.4 58.4c0 20 10.4 39.2 27.2 49.6l1.6 1.6c24.8 140.8 132 235.2 267.2 235.2s241.6-94.4 267.2-235.2c0.8-0.8 1.6-0.8 2.4-1.6 16.8-10.4 27.2-29.6 27.2-49.6 0-32-26.4-58.4-58.4-58.4S696 252 696 284c0 16 7.2 32 19.2 43.2-24.8 101.6-101.6 167.2-198.4 167.2-96.8 0-174.4-65.6-198.4-167.2 12-11.2 18.4-27.2 18.4-43.2z" p-id="7287" fill="#ffffff"></path><path d="M841.6 48H672c-20.8 0-37.6 17.6-36.8 38.4 0 20.8 16.8 36.8 37.6 36.8h156c24.8 0 44.8 20 44.8 44.8v684c0 24.8-20 44.8-44.8 44.8H204c-24.8 0-44.8-20-44.8-44.8V168.8c0-24.8 20-44.8 44.8-44.8h130.4c20.8 0 37.6-16.8 37.6-37.6 0-10.4-4-20-11.2-26.4-7.2-8-16.8-12-26.4-12h-144c-59.2 0-107.2 48-107.2 107.2v710.4c0 64 37.6 107.2 92.8 107.2h665.6c59.2 0 107.2-48 107.2-107.2V156c0-60-48-108-107.2-108z" p-id="7288" fill="#ffffff"></path></svg>