<?xml version="1.0" standalone="no"?><!DOCTYPE svg PUBLIC "-//W3C//DTD SVG 1.1//EN" "http://www.w3.org/Graphics/SVG/1.1/DTD/svg11.dtd"><svg t="1556422465825" class="icon" style="" viewBox="0 0 1024 1024" version="1.1" xmlns="http://www.w3.org/2000/svg" p-id="13209" xmlns:xlink="http://www.w3.org/1999/xlink" width="64" height="64"><defs><style type="text/css"></style></defs><path d="M872.399233 230.896764l-31.41857 0c15.928784-27.009144 22.918989-52.774971 20.688181-76.674287-1.856277-20.004613-11.33107-48.607044-46.073338-71.403237-28.79993-18.945491-65.837474-23.593348-106.921171-13.331633-66.63463 16.734126-145.491629 74.243935-197.348694 143.753031-51.877531-69.498864-130.676202-127.018905-197.304691-143.753031-41.127699-10.328229-78.192873-5.647627-106.989733 13.331633-34.7085 22.797215-44.189432 51.398624-46.038546 71.403237-2.230808 23.90034 4.695952 49.665143 20.688181 76.674287l-31.41857 0c-47.567365 0-86.282109 38.745443-86.282109 86.35067l0 111.217011c0 37.656645 24.837688 70.934562 60.776202 82.113159-3.417843 9.451256-5.203512 19.22383-5.203512 29.119201l0 333.672522c0 47.570435 38.758746 86.326111 86.331227 86.326111l610.990548 0c47.570435 0 86.267782-38.755676 86.267782-86.326111L903.142421 539.697829c0-9.963932-1.728364-19.765159-5.140067-29.15297 35.880185-11.242042 60.663638-44.525076 60.663638-82.084507L958.665992 317.273017C958.667016 269.676999 919.970692 230.896764 872.399233 230.896764M816.875662 898.213155l-274.829346 0 0-383.381667 274.829346 0c13.697977 0 24.802896 11.168364 24.802896 24.866341l0 333.672522C841.678558 887.068328 830.573639 898.213155 816.875662 898.213155M575.890122 230.896764c43.709501-50.41625 101.079116-90.031503 147.657968-101.722776 24.198122-6.068206 43.998073-4.402263 58.335616 5.042853 15.22475 10.012028 17.939581 18.935258 18.550495 25.676799 2.425236 24.706705-24.076348 58.023508-36.588313 71.002101L575.890122 230.895741 575.890122 230.896764zM897.173476 317.273017l0 111.192452c0 13.69286-11.07729 24.832572-24.774243 24.832572L542.046317 453.29804 542.046317 292.425096l330.352917 0C886.096187 292.425096 897.173476 303.58425 897.173476 317.273017M480.586546 514.831488l0 383.381667L205.885114 898.213155c-13.732769 0-24.842805-11.144828-24.842805-24.842805L181.042309 539.697829c0-13.697977 11.110035-24.866341 24.842805-24.866341L480.586546 514.831488 480.586546 514.831488zM222.233454 159.894663c0.604774-6.741541 3.348258-15.664771 18.515702-25.676799 14.235213-9.445116 34.035164-11.18883 58.364269-5.042853 46.322002 11.628852 103.632265 51.247174 147.440004 101.722776L258.756275 230.897787C247.549026 219.552391 219.772402 185.201026 222.233454 159.894663M125.425617 317.273017c0-13.688767 11.111059-24.853038 24.837688-24.853038l330.318124 0 0 160.878061L150.263305 453.29804c-13.726629 0-24.837688-11.139711-24.837688-24.832572L125.425617 317.273017 125.425617 317.273017zM125.425617 317.273017" p-id="13210" fill="#ffffff"></path></svg>