<?xml version="1.0" standalone="no"?><!DOCTYPE svg PUBLIC "-//W3C//DTD SVG 1.1//EN" "http://www.w3.org/Graphics/SVG/1.1/DTD/svg11.dtd"><svg t="1556422596808" class="icon" style="" viewBox="0 0 1047 1024" version="1.1" xmlns="http://www.w3.org/2000/svg" p-id="13948" xmlns:xlink="http://www.w3.org/1999/xlink" width="65.4375" height="64"><defs><style type="text/css"></style></defs><path d="M339.060364 723.898182L68.352 454.912c-13.032727-12.962909-23.761455-41.425455-22.481455-59.694545l21.41091-304.826182c0.930909-13.498182 13.707636-26.065455 27.298909-26.833455l302.08-17.664c18.594909-1.117091 47.266909 9.774545 60.369454 22.807273l278.574546 276.759273 32.256-32.046546-278.574546-276.759273C466.804364 14.266182 425.774545-1.210182 394.007273 0.651636L91.904 18.292364C55.133091 20.433455 24.32 50.734545 21.76 87.249455l-21.410909 304.826181c-2.210909 31.650909 13.149091 72.471273 35.723636 94.906182l270.731637 268.986182 32.256-32.069818z m687.197091-170.705455l-129.489455-128.651636-32.256 32.046545 129.489455 128.674909a22.621091 22.621091 0 0 1 0 32.069819L637.579636 971.473455a22.946909 22.946909 0 0 1-32.256 0l-141.614545-140.70691-32.256 32.046546 141.591273 140.706909a68.189091 68.189091 0 0 0 48.407272 19.874909 68.189091 68.189091 0 0 0 48.407273-19.874909l356.375273-354.141091a67.770182 67.770182 0 0 0 0-96.186182z" p-id="13949" fill="#ffffff"></path><path d="M237.405091 236.683636a119.016727 119.016727 0 0 0-35.421091 84.992c0 32.093091 12.567273 62.277818 35.421091 84.945455a120.552727 120.552727 0 0 0 85.527273 35.211636 120.552727 120.552727 0 0 0 85.504-35.188363 119.016727 119.016727 0 0 0 35.444363-84.968728c0-32.116364-12.590545-62.277818-35.421091-84.992a120.552727 120.552727 0 0 0-85.527272-35.188363A120.552727 120.552727 0 0 0 237.381818 236.683636z m160.814545 84.992c0 19.968-7.819636 38.749091-22.039272 52.898909a75.054545 75.054545 0 0 1-53.248 21.92291 75.077818 75.077818 0 0 1-53.271273-21.92291 74.100364 74.100364 0 0 1-22.039273-52.898909c0-20.014545 7.842909-38.795636 22.062546-52.922181a75.054545 75.054545 0 0 1 53.248-21.92291c20.107636 0 39.028364 7.773091 53.248 21.92291 14.173091 14.010182 22.109091 33.047273 22.062545 52.922181z m-163.141818 598.411637l704.977455-700.509091 32.256 32.093091-704.954182 700.462545-32.256-32.046545z" p-id="13950" fill="#ffffff"></path></svg>