<?xml version="1.0" standalone="no"?><!DOCTYPE svg PUBLIC "-//W3C//DTD SVG 1.1//EN" "http://www.w3.org/Graphics/SVG/1.1/DTD/svg11.dtd"><svg t="1556422009078" class="icon" style="" viewBox="0 0 1024 1024" version="1.1" xmlns="http://www.w3.org/2000/svg" p-id="6529" xmlns:xlink="http://www.w3.org/1999/xlink" width="64" height="64"><defs><style type="text/css"></style></defs><path d="M915.979798 132.553968 435.410648 132.553968c-23.698748 0-42.97886 19.280112-42.97886 42.97886l0 133.223211L206.674083 308.756039c-19.801998 0-38.627762 7.496741-53.009308 21.109784l-63.771419 60.364833c-15.316847 14.498202-24.100908 34.910091-24.100908 56.000432l0 97.266277c0 1.134847 0.066515 2.25332 0.186242 3.356444-0.610914 2.880607-0.937348 5.863545-0.937348 8.92323l0 152.784732c0 23.698748 19.280112 42.97886 42.97886 42.97886l54.295604 0c-9.159614 16.739243-14.372336 35.932374-14.372336 56.32175 0 64.912405 52.80874 117.721145 117.721145 117.721145s117.721145-52.80874 117.721145-117.721145c0-20.389376-5.212722-39.582507-14.372336-56.32175l54.119595 0 202.980971 0c-9.284457 16.826224-14.576997 36.149315-14.576997 56.688093 0 64.911382 52.80874 117.720122 117.721145 117.720122 64.911382 0 117.720122-52.80874 117.720122-117.720122 0-20.538779-5.29254-39.862893-14.576997-56.688093l83.581604 0c23.698748 0 42.97886-19.280112 42.97886-42.97886l0-533.029966C958.958658 151.835104 939.678546 132.553968 915.979798 132.553968zM729.255069 864.552521c-31.057343 0-56.322773-25.26543-56.322773-56.32175s25.26543-56.32175 56.322773-56.32175c31.05632 0 56.32175 25.26543 56.32175 56.32175S760.311389 864.552521 729.255069 864.552521zM127.190821 446.232111c0-4.297886 1.789763-8.456602 4.910846-11.410887l63.770396-60.364833c2.930749-2.774183 6.767124-4.301979 10.80202-4.301979l185.002504 0 0 142.644791L127.190821 512.799202 127.190821 446.232111zM126.439714 574.197574 392.431787 574.197574l0 115.945709L126.439714 690.143283 126.439714 574.197574zM321.985342 807.863405c0 31.057343-25.26543 56.322773-56.322773 56.322773s-56.322773-25.26543-56.322773-56.322773c0-31.05632 25.26543-56.32175 56.322773-56.32175S321.985342 776.807085 321.985342 807.863405zM897.560286 690.143283 453.830159 690.143283 453.830159 555.778062 453.830159 193.95234l443.730127 0L897.560286 690.143283z" p-id="6530" fill="#ffffff"></path></svg>