<?xml version="1.0" standalone="no"?><!DOCTYPE svg PUBLIC "-//W3C//DTD SVG 1.1//EN" "http://www.w3.org/Graphics/SVG/1.1/DTD/svg11.dtd"><svg t="1556422679749" class="icon" style="" viewBox="0 0 1024 1024" version="1.1" xmlns="http://www.w3.org/2000/svg" p-id="14995" xmlns:xlink="http://www.w3.org/1999/xlink" width="128" height="128"><defs><style type="text/css"></style></defs><path d="M861.991186 626.170273c-17.791202 0-32.619932 14.637372-32.619932 32.202423l0 178.578188c0 10.246365-8.905834 19.025309-17.801435 19.025309L200.571085 855.976192c-10.381441 0-17.799388-8.778944-17.799388-17.559934L182.771697 662.762679c0-17.564028-14.830777-32.202423-32.621978-32.202423-17.799388 0-32.630165 14.637372-32.630165 32.202423l0 175.653579c0 46.839795 37.0795 83.433224 83.051531 83.433224l610.998735 0c45.975101 0 83.052554-38.060851 83.052554-83.433224L894.622374 659.83807C894.621351 640.808668 879.793644 626.170273 861.991186 626.170273z" p-id="14996" fill="#ffffff"></path><path d="M952.461687 365.621165c0-2.924609-1.485841-4.389984-1.485841-7.317663l-75.641771-191.748139c-13.34289-39.520085-50.41932-64.403822-94.90858-64.403822L246.544139 102.151541c-44.487214 0-80.08906 23.418362-91.946109 61.479213L71.546499 359.767853c0 1.463328-1.485841 2.928702-1.485841 4.394077-5.934153 19.029402-8.895601 36.595476-8.895601 55.620785 0 67.336618 35.591613 127.346363 94.918813 159.548786 23.724331 13.175067 51.896974 20.49273 84.527139 20.49273 53.393048 0 102.32755-23.418362 136.435369-64.403822 34.105772 39.522132 83.049484 62.940494 134.957715 64.403822 53.382814 0 100.843756-23.418362 134.959761-64.403822 34.095539 40.98546 83.041298 64.403822 136.435369 64.403822 32.619932 0 60.801784-7.317663 86.012979-20.49273 57.830103-32.202423 93.423763-92.212168 93.423763-158.085458C961.357288 402.216641 958.385607 383.191332 952.461687 365.621165zM838.266855 520.777921c-14.830777 8.78713-32.630165 11.713786-54.868655 11.713786-40.039925 0-75.641771-20.494777-96.394421-54.159504-1.487887-2.926656-4.459568-8.78099-8.905834-13.170974-5.934153-5.854335-14.830777-13.177114-31.134091-13.177114-13.353123 0-25.220405 5.856381-31.154557 13.177114-4.447289 4.389984-7.40976 10.244318-8.895601 13.170974-20.762883 33.664727-56.354496 54.159504-94.90858 54.159504-38.563294 0-75.631538-20.494777-96.394421-54.159504-1.485841-2.926656-4.457522-8.78099-7.417947-11.711739-14.830777-19.027355-48.936549-17.561981-62.278415-1.459235-4.459568 5.850242-7.419993 10.244318-8.905834 14.633279-20.762883 33.666774-56.354496 54.16155-96.394421 54.16155-20.762883 0-38.555108-4.39203-53.382814-11.711739-37.0795-20.49273-60.814064-58.549487-60.814064-100.999298 0-13.173021 1.485841-24.88169 5.934153-38.054711 0-1.465374 0-1.465374 1.485841-2.930749l80.078827-191.748139c1.485841-4.394077 5.934153-20.49273 31.144324-20.49273l533.881356 0c10.381441 0 28.182876 2.926656 34.116005 20.49273l75.633584 190.286858c0 1.461281 0 2.926656 1.485841 4.39203 4.447289 11.707646 5.932106 24.88169 5.932106 38.054711C897.582799 462.23048 873.858468 501.752612 838.266855 520.777921z" p-id="14997" fill="#ffffff"></path></svg>