<?xml version="1.0" standalone="no"?><!DOCTYPE svg PUBLIC "-//W3C//DTD SVG 1.1//EN" "http://www.w3.org/Graphics/SVG/1.1/DTD/svg11.dtd"><svg t="1556422381696" class="icon" style="" viewBox="0 0 1024 1024" version="1.1" xmlns="http://www.w3.org/2000/svg" p-id="11884" xmlns:xlink="http://www.w3.org/1999/xlink" width="64" height="64"><defs><style type="text/css"></style></defs><path d="M684.032 51.712H206.0288c-62.8224 0-102.7072 37.7856-102.7072 96.5632V866.304c0 58.7776 50.944 106.496 113.8176 106.496h610.7136c62.8224 0 93.184-48.2304 93.184-107.008V301.6192L684.032 51.712z m-22.3744 73.4208l177.8176 187.0848h-142.2848c-31.3856 0-35.5328-16.896-35.5328-46.2336V125.1328z m198.8096 751.2576c0 29.3888-4.096 35.6352-35.5328 35.6352H199.4752c-31.4368 0-35.584-6.2464-35.584-35.6352V148.4288c0-29.3888 4.1472-35.6352 35.584-35.6352h401.6128V301.568c0 58.7776 8.2944 71.3216 71.1168 71.3216h188.2624v503.4496z m-163.1744-182.528h-370.176c-16.0256 0-20.992 5.632-20.992 23.7568v15.3088c0 18.0736 4.9664 23.808 20.992 23.808h370.176c16.0256 0 20.992-5.7344 20.992-23.808v-15.36c0-18.0736-4.9664-23.7056-20.992-23.7056z m-391.168-154.5216v15.2576c0 18.1248 4.7616 23.8592 20.3264 23.8592h371.5072c15.5648 0 20.3264-5.7344 20.3264-23.8592v-15.2576c0-18.1248-4.7616-23.7568-20.3264-23.7568H326.4512c-11.1104 0-20.3264 5.632-20.3264 23.7568z m20.736-139.1616h182.3744c15.872 0 20.736-5.7344 20.736-23.8592v-15.2576c0-18.1248-4.864-23.7568-20.736-23.7568H326.8608c-15.872 0-20.736 5.632-20.736 23.7568v15.2576c0 18.1248 4.864 23.8592 20.736 23.8592z" p-id="11885" fill="#ffffff"></path></svg>