<?xml version="1.0" standalone="no"?><!DOCTYPE svg PUBLIC "-//W3C//DTD SVG 1.1//EN" "http://www.w3.org/Graphics/SVG/1.1/DTD/svg11.dtd"><svg t="1564555308584" class="icon" viewBox="0 0 1024 1024" version="1.1" xmlns="http://www.w3.org/2000/svg" p-id="540" width="64" height="64" xmlns:xlink="http://www.w3.org/1999/xlink"><defs><style type="text/css"></style></defs><path d="M201.18558 845.839321l55.642275 0c46.025243 0 83.463923-37.384445 83.463923-83.463923L340.291778 539.833929c0-46.02422-37.438681-83.463923-83.463923-83.463923L201.18558 456.370005c-46.02422 0-83.463923 37.439704-83.463923 83.463923L117.721657 762.376421C117.721657 808.454876 155.160337 845.839321 201.18558 845.839321zM173.363931 539.833929c0-15.32401 12.497639-27.821649 27.821649-27.821649l55.642275 0c15.32401 0 27.821649 12.497639 27.821649 27.821649L284.649504 762.376421c0 15.32401-12.497639 27.821649-27.821649 27.821649L201.18558 790.19807c-15.322987 0-27.821649-12.497639-27.821649-27.821649L173.363931 539.833929z" p-id="541"></path><path d="M467.877595 845.839321l55.642275 0c46.02422 0 83.463923-37.384445 83.463923-83.463923L606.983793 372.907105c0-46.02422-37.439704-83.463923-83.463923-83.463923l-55.642275 0c-46.025243 0-83.463923 37.439704-83.463923 83.463923L384.413672 762.376421C384.413672 808.454876 421.852352 845.839321 467.877595 845.839321zM440.055946 372.907105c0-15.322987 12.497639-27.821649 27.821649-27.821649l55.642275 0c15.322987 0 27.821649 12.498662 27.821649 27.821649L551.341518 762.376421c0 15.32401-12.498662 27.821649-27.821649 27.821649l-55.642275 0c-15.32401 0-27.821649-12.497639-27.821649-27.821649L440.055946 372.907105z" p-id="542"></path><path d="M734.568586 845.839321l55.642275 0c46.025243 0 83.463923-37.384445 83.463923-83.463923L873.674784 150.338007c0-46.02422-37.438681-83.463923-83.463923-83.463923l-55.642275 0c-46.02422 0-83.463923 37.439704-83.463923 83.463923L651.104663 762.376421C651.104663 808.454876 688.544367 845.839321 734.568586 845.839321zM706.746938 150.338007c0-15.322987 12.497639-27.821649 27.821649-27.821649l55.642275 0c15.32401 0 27.821649 12.498662 27.821649 27.821649L818.03251 762.376421c0 15.32401-12.497639 27.821649-27.821649 27.821649l-55.642275 0c-15.32401 0-27.821649-12.497639-27.821649-27.821649L706.746938 150.338007z" p-id="543"></path><path d="M929.316036 901.481595 94.681918 901.481595c-15.377222 0-27.821649 12.497639-27.821649 27.821649 0 15.431457 12.443403 27.821649 27.821649 27.821649l834.634118 0c15.377222 0 27.821649-12.389168 27.821649-27.821649C957.137685 913.979234 944.694281 901.481595 929.316036 901.481595z" p-id="544"></path></svg>