<?xml version="1.0" standalone="no"?><!DOCTYPE svg PUBLIC "-//W3C//DTD SVG 1.1//EN" "http://www.w3.org/Graphics/SVG/1.1/DTD/svg11.dtd"><svg t="1553063555265" class="icon" style="" viewBox="0 0 1024 1024" version="1.1" xmlns="http://www.w3.org/2000/svg" p-id="5046" xmlns:xlink="http://www.w3.org/1999/xlink" width="32" height="32"><defs><style type="text/css"></style></defs><path d="M512 1024C229.7 1024 0 794.3 0 512S229.7 0 512 0s512 229.7 512 512-229.7 512-512 512z m0-938.7C276.7 85.3 85.3 276.7 85.3 512S276.7 938.7 512 938.7 938.7 747.3 938.7 512 747.3 85.3 512 85.3z" p-id="5047"></path><path d="M513.5 685.3c-1.8 0-3.6-0.1-5.5-0.4-23.4-3-39.9-24.4-36.9-47.7 4.2-32.8 16.8-64.8 36.4-92.5 12.7-17.9 27.9-32.3 41.3-45 5.8-5.5 11.3-10.7 16.4-16 32.8-33.9 48.1-61.3 48.1-86.3 0-55.9-45.5-101.3-101.3-101.3s-101.3 45.5-101.3 101.3c0 23.6-19.1 42.7-42.7 42.7s-42.7-19.1-42.7-42.7c0-102.9 83.7-186.7 186.7-186.7s186.7 83.7 186.7 186.7c0 63.8-41.2 113.7-72.2 145.7-6.4 6.6-12.8 12.7-19 18.5-11.6 11-22.6 21.4-30.4 32.5-11.6 16.3-18.9 35-21.4 54-2.7 21.5-21.1 37.2-42.2 37.2zM513.8 844.5c-5.3 0-10.7-0.9-16-2.7l-1.8-0.6c-26-8.8-40-37.1-31.1-63.1 8.8-26 37.1-40 63.1-31.1l1.8 0.6c26 8.8 40 37.1 31.1 63.1-7 20.7-26.4 33.8-47.1 33.8z" p-id="5048"></path></svg>